<?xml version="1.0" encoding="iso-8859-1"?>
<!-- Uploaded to: SVG Repo, www.svgrepo.com, Generator: SVG Repo Mixer Tools -->
<!DOCTYPE svg PUBLIC "-//W3C//DTD SVG 1.1//EN" "http://www.w3.org/Graphics/SVG/1.1/DTD/svg11.dtd">
<svg fill="#808080" version="1.1" id="Capa_1" xmlns="http://www.w3.org/2000/svg" xmlns:xlink="http://www.w3.org/1999/xlink"
     width="800px" height="800px" viewBox="0 0 67.201 67.201"
     xml:space="preserve">
  <g>
    <g>
      <g>
        <path fill="#808080" d="M46.705,15.232V0H1.904v67.201l22.4-20.16l22.4,20.16V51.969c10.08,0,18.592-8.287,18.592-18.593
          C65.297,23.074,56.785,15.232,46.705,15.232z M46.705,48.833c-8.289,0-15.232-6.722-15.232-15.232
          c0-8.511,6.72-15.232,15.232-15.232c8.514,0,15.229,6.722,15.229,15.232C61.936,42.113,54.992,48.833,46.705,48.833z"/>
        <polygon fill="#808080" points="49.393,24.193 43.793,24.193 43.793,30.688 37.297,30.688 37.297,36.512 43.793,36.512 43.793,43.009
          49.393,43.009 49.393,36.512 56.112,36.512 56.112,30.688 49.393,30.688"/>
      </g>
    </g>
  </g>
</svg>
