<svg xmlns="http://www.w3.org/2000/svg" width="18" height="18"><path d="M8.906 15a6.1 6.1 0 01-6.092-6.094A6.101 6.101 0 018.906 2.81 6.102 6.102 0 0115 8.906 6.101 6.101 0 018.906 15zm0-15c.26 0 .469.21.469.469v3.3a5.167 5.167 0 014.667 4.668h3.302a.469.469 0 110 .938H14.04a5.166 5.166 0 01-4.666 4.666v3.303a.469.469 0 11-.938 0V14.04a5.166 5.166 0 01-4.665-4.666H.47a.469.469 0 110-.938h3.303a5.166 5.166 0 014.665-4.669v-3.3c0-.258.21-.468.47-.468z" fill="#74746D" fill-rule="evenodd"></path></svg>